# xmcd
#
# Track frame offsets:
#	150
#	11838
#	23377
#	35671
#	47364
#	59618
#	73898
#	86514
#	99671
#	111485
#	123149
#	134914
#	145221
#	156143
#	171082
#	182666
#	193569
#	206207
#	218610
#	230337
#	244316
#	258436
#
# Disc length: 3602 seconds
#
# Revision: 1
# Processed by: cddbd v1.5.2PL0 Copyright (c) Steve Scherf et al.
# Submitted via: audiograbber 1.83.01
#
DISCID=430e1016
DTITLE=Muddy Waters - Rollin' Stone: The Golden Anniversary Collection [CD 1)
DYEAR=2000
DGENRE=Blues
TTITLE0=Gypsy Woman
TTITLE1=Little Anna Mae
TTITLE2=Good Looking Woman
TTITLE3=Mean Disposition
TTITLE4=I Can't Be Satisfied
TTITLE5=I Feel Like Going Home
TTITLE6=Train Fare Home
TTITLE7=Down South Blues
TTITLE8=Kind Hearted Woman
TTITLE9=Sittin' Here And Drinkin' (Whiskey Blues)
TTITLE10=You're Gonna Miss Me
TTITLE11=Mean Red Spider
TTITLE12=Standin' Here Tremblin'
TTITLE13=Streamline Woman
TTITLE14=Hard Days
TTITLE15=Muddy Jumps One
TTITLE16=Little Geneva
TTITLE17=Canary Bird
TTITLE18=Burying Ground Blues
TTITLE19=Screamin' and Cryin'
TTITLE20=Where's My Woman Been
TTITLE21=Last Time I Fool Around With You
EXTD=
EXTT0=
EXTT1=
EXTT2=
EXTT3=
EXTT4=
EXTT5=
EXTT6=
EXTT7=
EXTT8=
EXTT9=
EXTT10=
EXTT11=
EXTT12=
EXTT13=
EXTT14=
EXTT15=
EXTT16=
EXTT17=
EXTT18=
EXTT19=
EXTT20=
EXTT21=
PLAYORDER=
